<?xml version="1.0" encoding="UTF-8" standalone="no"?>
<svg class="svg-logo" width="64px" height="64px" viewBox="0 0 64 64" version="1.1" xmlns="http://www.w3.org/2000/svg" xmlns:xlink="http://www.w3.org/1999/xlink" xmlns:sketch="http://www.bohemiancoding.com/sketch/ns">
    <!-- Generator: Sketch 3.2.1 (9977) - http://www.bohemiancoding.com/sketch -->
    <title>logo</title>
    <desc>Created with Sketch.</desc>
    <defs></defs>
    <g id="Home" stroke="none" stroke-width="1" fill="none" fill-rule="evenodd" sketch:type="MSPage">
        <g id="home-top" sketch:type="MSArtboardGroup" transform="translate(-30.000000, -30.000000)" class="svg-logo-fill" fill="#444444">
            <g id="logo" sketch:type="MSLayerGroup" transform="translate(30.000000, 30.000000)">
                <path d="M32,64 C49.673112,64 64,49.673112 64,32 C64,14.326888 49.673112,0 32,0 C14.326888,0 0,14.326888 0,32 C0,49.673112 14.326888,64 32,64 Z M54.3566095,47 C54.2117726,47 54.027278,46.9775381 54.0193957,46.9765286 C53.88318,46.950281 53.6664173,46.8940001 53.5528631,46.7804287 C53.4151695,46.642124 53.289053,46.3415385 53.2535828,46.2524481 L53.2449615,46.230491 L53.1580101,45.7926103 C53.1562859,45.7832722 52.9784419,44.9012013 52.442693,44.1622304 C51.897584,43.4096309 50.9374236,42.7405694 50.9278171,42.7340075 C50.9100819,42.7221456 48.9148794,41.3835179 46.6627638,40.558485 C45.0917265,39.9368712 41.609975,39.1004812 41.5752437,39.0921526 C41.4892775,39.069186 39.6019637,38.5472625 37.6693268,36.8179493 C36.9370136,36.144345 36.014294,34.5561127 35.606386,33.8189084 C35.2314849,34.4594508 34.46715,35.7703167 34.037073,36.5385638 C33.4993536,37.4993775 32.4347529,39.5002524 32.4239148,39.5201905 C32.419481,39.528519 31.9470368,40.4221994 31.681995,40.9567419 C31.4625228,41.3991655 30.9575641,42.4750648 30.9477112,42.4960124 C30.9486965,42.4960124 30.7671577,42.976293 30.6976951,43.2152976 C30.6412875,43.4088737 30.564189,43.8187401 30.56345,43.8230306 L30.5602478,43.8399401 L30.5548288,43.8563449 C30.5432517,43.8911734 30.2641696,44.7109062 29.5040221,44.7111586 C29.4754488,44.7111586 29.4466292,44.7098967 29.4168244,44.7073729 C28.6069199,44.6387253 28.4194694,43.8959686 28.4118335,43.864421 L28.4066607,43.835902 L28.3438488,43.3278595 L28.3638008,42.9359121 C28.3682346,42.8945217 28.6539673,40.5001851 28.8313186,39.3331763 C28.9241818,38.7221624 29.104489,37.7406535 29.2259254,37.0948111 C28.1714239,37.9004105 25.7047624,39.7273951 23.7502029,40.7316183 C22.3279437,41.5778511 19.5499321,42.6671266 19.4324369,42.7133122 C19.414948,42.7208837 16.9702091,43.7637211 15.7693928,44.2321399 C14.728439,44.6379682 12.7376703,45.3383249 12.4327245,45.4453343 C12.2699061,45.5773295 12.1097973,45.7315341 12.0799924,45.7855436 C12.0607793,45.8274388 12.0607793,45.9818959 12.0807314,46.0962244 L12.1100436,46.2638052 L11.9691478,46.3544099 C11.9299827,46.3793956 11.5792212,46.5992193 11.2774776,46.5992193 C10.5843295,46.5966955 10.1111463,46.3208433 10.0914406,46.3092338 L10.0249338,46.2698624 L9.99192676,46.198691 C9.98478344,46.1832958 9.81506806,45.8125484 9.68969052,45.2633678 C9.5598792,44.695511 9.62515434,44.1899923 9.6281102,44.1687923 L9.64609165,44.0345257 L11.0757405,43.3296261 L12.6177118,42.7776693 C12.6600791,42.763536 16.536191,41.4420702 19.6600377,40.0655854 C22.7777264,38.6923815 25.9042827,36.7278494 25.9355655,36.7081637 C25.9508374,36.6980684 27.8741141,35.4280883 28.6613569,34.7236935 C29.0934045,34.3367938 29.6845756,33.6011037 30.0230211,33.1639802 C29.3192811,33.382542 28.0115614,33.7684322 26.9183874,33.9771511 C24.9847652,34.3463842 22.7274769,34.6161793 22.7050616,34.6189555 C22.6843706,34.6204698 22.5774672,34.6242555 22.4222848,34.6242555 C22.1254676,34.6242555 21.7160816,34.6116364 21.449562,34.5518222 C21.1709726,34.4894841 20.6793153,34.1866272 20.6241393,34.1525558 L20.5884227,34.1303463 L20.5615737,34.097032 C20.548765,34.0808796 20.2408634,33.6912037 20.1718934,33.122085 C20.1053866,32.5766901 20.3694431,32.306895 20.5357099,32.2334522 C20.56182,32.2220951 21.1463404,31.9136858 21.5591749,31.8172763 C21.8889992,31.7405525 22.717624,31.6040145 22.7526016,31.6040145 L22.7577744,31.6040145 C22.8735454,31.6040145 23.0274962,31.7117811 23.2245532,31.9507857 C23.2482001,31.9793048 23.2661815,32.0219571 23.2775123,32.0300333 L23.3275155,32.0408857 C23.346236,32.0401285 25.2185242,31.9533096 26.9302109,31.7175859 C28.2564047,31.5348622 29.6035359,31.2751624 30.1533251,31.1636101 C29.998389,30.654558 29.5382608,29.4534778 28.4448405,28.5030117 C27.0004124,27.2471649 24.4150241,26.5616987 24.3891603,26.5548844 C24.3780759,26.5523606 22.5710628,26.1394656 20.9529782,25.9643134 C19.3262724,25.7881516 16.106114,25.6132517 16.0738459,25.611485 C15.9644793,25.6074469 13.2869668,25.506747 12.2063552,25.4037756 C11.4075353,25.3273042 10.4419558,25.0784568 10.4010664,25.0678568 C10.3333281,25.0474139 8.95959419,24.625938 8.40512495,24.1827573 C7.83907861,23.7299862 7.1011,22.4630346 7.07006351,22.4092775 L7.04814092,22.3714204 L7.04001231,22.3282633 C7.03508589,22.3020157 6.92005384,21.6771208 7.10405585,21.1037117 C7.24174946,20.7541643 7.47575469,20.6433691 7.5752685,20.6110644 C7.64744064,20.5764882 7.83390586,20.5022883 8.10682986,20.5022883 C8.16102054,20.5022883 8.21890605,20.5053168 8.28024005,20.5121311 C8.78569136,20.5674025 8.92338496,20.8904499 8.93742528,20.9270451 L8.94358331,20.9431975 L8.94777077,20.9606118 C8.95220456,20.9787832 9.39582921,22.8335296 11.0336195,23.2628294 C12.7652583,23.7168624 18.9836394,23.78021 19.6868868,23.78021 L19.8157128,23.78021 C20.0349387,23.78021 24.6896723,24.184524 27.5349296,25.5738803 C29.7003402,26.6313558 31.0521515,28.3122119 31.6130251,29.1357304 C31.9241289,28.0732073 32.6426481,25.6354612 33.1328275,24.2032002 C33.8262219,22.1768348 35.4805158,17.8888851 35.4970193,17.8459804 C35.5502247,17.6819329 35.7034366,17.2506141 35.877832,17.0953999 C35.9480336,17.0330619 36.0421283,17 36.1578994,17 C36.2914055,17 36.4387056,17.0418952 36.49265,17.0593095 C36.5773845,17.0747047 36.839963,17.1249285 36.9815978,17.1834808 C37.134317,17.2460713 37.344429,17.4017902 37.3850721,17.4323283 L37.4168475,17.4563045 L37.4400017,17.4893664 C37.4865564,17.5564996 37.5663645,17.6874853 37.578188,17.8076185 C37.590504,17.9320423 37.5439493,18.1160279 37.5232583,18.1894707 C37.5018284,18.2502944 35.9389197,22.5861965 35.2068528,24.7374903 C34.6127258,26.4829559 33.6355693,29.5435778 33.2936753,30.6189723 C33.3675717,30.6002961 33.4412217,30.5760676 33.50428,30.5452771 C33.9528311,30.3262106 34.896488,29.8593061 35.0309794,29.79293 C35.1770479,29.6914729 36.3721989,28.8606353 36.9663259,28.4015547 C37.6212942,27.8955312 38.7765411,26.9930175 38.7765411,26.9930175 C38.8036364,26.9740889 40.1411611,26.0748561 41.7984108,25.2644614 C43.5317737,24.4169667 45.5360902,23.7161053 46.5767976,23.3738769 C49.1882961,22.5147727 54.6504708,21.6009018 54.7054005,21.5918161 L54.7231356,21.5887876 L54.8354581,21.5880304 C55.104441,21.5880304 55.5963446,21.598378 55.8702539,21.667278 C56.1683027,21.7424875 56.6114347,22.0458492 56.6609453,22.0804253 C56.8306607,22.1947538 57.0895443,22.534206 56.9690932,23.0687485 C56.8533222,23.5810815 56.5084724,23.8142814 56.3227461,23.8713194 C56.3059963,23.8763671 56.1434242,23.9248242 55.8845406,23.9248242 C55.8512872,23.9248242 55.8165559,23.924067 55.7803466,23.9223004 C55.5185071,23.9096813 55.3024833,23.8420433 55.22637,23.8152909 C55.0980366,23.7966147 54.4792775,23.7087862 54.1669421,23.7087862 C53.2264874,23.714591 52.5141262,23.8518861 52.5069829,23.8534004 C52.4789023,23.8597099 49.0365621,24.6337618 47.3903969,25.1834472 C45.7540845,25.730104 42.5607752,27.1722078 42.5287534,27.1868459 C42.5206248,27.190884 40.8503201,28.0290406 40.0827829,28.5971498 L39.9320343,28.7084497 C39.1891293,29.256116 38.5477086,29.7288253 37.8555457,30.6389104 L37.8309136,30.6734866 C37.6045443,30.9887102 37.3478775,31.3460814 37.4464061,32.372514 C37.5501073,33.453461 38.2471966,34.3731366 38.2540936,34.3822223 C38.2558179,34.3822223 39.2736175,35.4608978 40.1374663,35.8568833 C41.1621629,36.3265639 43.9894387,37.1432682 44.0177657,37.1513443 C44.0364861,37.1556348 47.0480103,37.8756772 49.6087665,39.2392906 C50.792094,39.7791332 52.4638767,40.9234277 52.5345709,40.9716324 C52.594427,41.0107514 54.1132441,42.0127032 54.9172368,43.1814786 L54.9263507,43.1948548 L54.933494,43.2089881 C55.5222019,44.3505064 55.5510215,45.1349059 55.547573,45.3327725 C55.5818117,45.4758724 55.6665462,45.9180435 55.5125954,46.3107481 C55.3564277,46.7087526 55.0418754,46.8781001 54.8805349,46.9152001 C54.8517154,46.9220143 54.5790377,46.9868762 54.4339544,46.9972238 C54.4108002,46.9989905 54.3844438,47 54.3566095,47 L54.3566095,47 Z M32.8334531,32.1469982 C32.7685445,32.1851646 32.6957318,32.2387 32.6772892,32.2630343 C32.6715408,32.2832702 32.6526191,32.4113453 32.6461522,32.5166231 L32.6439966,32.5494103 L32.6344159,32.5806607 C32.6301047,32.5955174 32.1735887,34.0735045 31.9300017,35.0683921 C31.7182702,35.9344362 31.3108548,37.7738513 31.1666667,38.4285714 C31.1990012,38.3962965 31.2327729,38.3606916 31.265826,38.3253429 C31.4289358,37.974417 32.72136,35.1913443 33.2597902,34.0338012 C33.6205001,33.2584343 34.1565352,32.2238433 34.5,31.5714286 C34.2882685,31.6549336 34.0612081,31.7399755 33.8825298,31.7960724 C33.6391823,31.872149 32.9603962,32.1037088 32.8334531,32.1469982 L32.8334531,32.1469982 Z" id="Imported-Layers-2" sketch:type="MSShapeGroup"></path>
            </g>
        </g>
    </g>
</svg>